<svg id="Layer_1" data-name="Layer 1" xmlns="http://www.w3.org/2000/svg" viewBox="0 0 433 118"><defs><style>.cls-1{fill:#1874bd;}</style></defs><title>Artboard 3</title><g id="CA_QA_V1" data-name="CA QA V1"><g id="layer2"><g id="g612"><path id="path614" class="cls-1" d="M5.1,30.1a23.5,23.5,0,0,0,1.1,7.4,24.16,24.16,0,0,0,3,6.3,19.72,19.72,0,0,0,4.7,4.9,21.36,21.36,0,0,0,6.2,3.2,24.88,24.88,0,0,0,12.7.6,21.88,21.88,0,0,0,4.4-1.4,22.67,22.67,0,0,0,3.5-1.8,22,22,0,0,0,2.5-1.8,11.68,11.68,0,0,0,1.5-1.4l.5-.6L41,39.7l-.6.6a11.4,11.4,0,0,1-1.7,1.4c-.9.6-1.8,1.2-2.7,1.7a16.88,16.88,0,0,1-3.7,1.4,17.87,17.87,0,0,1-4.6.6,13.68,13.68,0,0,1-5.6-1.2,14.51,14.51,0,0,1-4.5-3.3,15.27,15.27,0,0,1-3-4.9,17.32,17.32,0,0,1-1.1-6,15.7,15.7,0,0,1,1.1-6.1,14.08,14.08,0,0,1,3-4.6A12.37,12.37,0,0,1,22,16.4a14.37,14.37,0,0,1,5.5-1,19.42,19.42,0,0,1,2.4.2,21.75,21.75,0,0,1,2.4.5,8,8,0,0,1,2.1.9,4.57,4.57,0,0,1,1.5,1.3,2.69,2.69,0,0,1,.6,1.7v2.5h7.3V17.6a7.27,7.27,0,0,0-.8-3.3,7.65,7.65,0,0,0-2.2-2.5A13.71,13.71,0,0,0,37.7,10a25.33,25.33,0,0,0-3.6-1.2c-1.2-.3-2.4-.5-3.6-.7a18,18,0,0,0-3.2-.2A25.44,25.44,0,0,0,20.1,9a23.54,23.54,0,0,0-6.2,3,19.66,19.66,0,0,0-4.7,4.8,23.39,23.39,0,0,0-3.1,6.1,28.29,28.29,0,0,0-1,7.2"/></g><g id="g616"><path id="path618" class="cls-1" d="M49.5,48.1a3.61,3.61,0,0,0,2.8,4.2,2.85,2.85,0,0,0,1.3,0H61V45.7H58.6a1.29,1.29,0,0,1-1-.4,1.84,1.84,0,0,1-.4-1V12.8a3.64,3.64,0,0,0-3-4.2h0a2.44,2.44,0,0,0-1.2,0H45.5v6.7H48a1.25,1.25,0,0,1,1.4,1v.3Z"/></g><g id="g620"><path id="path622" class="cls-1" d="M70.1,36.6a10.91,10.91,0,0,1,.7-4,9,9,0,0,1,5-5.1,8.89,8.89,0,0,1,3.6-.7A9.25,9.25,0,0,1,88,32.6a11,11,0,0,1,0,8,9.18,9.18,0,0,1-2,3.1,10.1,10.1,0,0,1-3,2,9.54,9.54,0,0,1-12.29-5.57h0a9.69,9.69,0,0,1-.61-3.53m-7.9,0a16.67,16.67,0,0,0,1.4,6.6,15.94,15.94,0,0,0,3.7,5.2,16.41,16.41,0,0,0,5.5,3.4,19.58,19.58,0,0,0,13.5,0,16.2,16.2,0,0,0,9.2-8.6,17.05,17.05,0,0,0,0-13.3,15.94,15.94,0,0,0-3.7-5.2,17.29,17.29,0,0,0-5.5-3.4,19.58,19.58,0,0,0-13.5,0,17.29,17.29,0,0,0-5.5,3.4,15.94,15.94,0,0,0-3.7,5.2,17.55,17.55,0,0,0-1.4,6.7"/></g><g id="g624"><path id="path626" class="cls-1" d="M101.2,41.1a16.34,16.34,0,0,0,1.3,6.9,8.72,8.72,0,0,0,3.7,3.9,13.76,13.76,0,0,0,9.6.6,12.53,12.53,0,0,0,5.5-3.6,9.78,9.78,0,0,0,1.5-2.4h.1v2.3a3.22,3.22,0,0,0,1,2.6,4.38,4.38,0,0,0,3.1.9h7.2V45.7h-2.5a1.25,1.25,0,0,1-1.4-1.06V20.9h-7.8V35.3a13.56,13.56,0,0,1-.6,4,10.85,10.85,0,0,1-1.7,3.4,8,8,0,0,1-6.5,3.2,4.58,4.58,0,0,1-3-.8,4.78,4.78,0,0,1-1.5-2.2,12.56,12.56,0,0,1-.4-3.4V25a3.46,3.46,0,0,0-2.7-4.08H106a2.85,2.85,0,0,0-1.3,0H97.2v6.6h2.5a1.25,1.25,0,0,1,1.4,1v.3Z"/></g><g id="g628"><path id="path630" class="cls-1" d="M150.9,46.4a7.55,7.55,0,0,1-4.1-1.2,8.18,8.18,0,0,1-2.7-3.4,12.91,12.91,0,0,1-1-5.2,14.23,14.23,0,0,1,.6-4.1,9.49,9.49,0,0,1,1.7-3.1,7,7,0,0,1,5.6-2.5,7.72,7.72,0,0,1,3.4.8,6.27,6.27,0,0,1,2.4,2.2,8.75,8.75,0,0,1,1.5,3.1,15.1,15.1,0,0,1,.5,3.6,17.12,17.12,0,0,1-.6,4.5,9.55,9.55,0,0,1-1.8,3.1,7.21,7.21,0,0,1-2.5,1.8,7.81,7.81,0,0,1-3,.4m-15.7-9.8a21.77,21.77,0,0,0,1,6.7,14.51,14.51,0,0,0,2.8,5.2,13.29,13.29,0,0,0,4.4,3.4,14.28,14.28,0,0,0,5.8,1.2,15.72,15.72,0,0,0,3.8-.5,10.35,10.35,0,0,0,2.8-1.3,8.91,8.91,0,0,0,1.9-1.5,6.62,6.62,0,0,0,1-1.3,2.29,2.29,0,0,1,.3-.5h.1v1.2a3.58,3.58,0,0,0,.4,1.7,2.56,2.56,0,0,0,1.2,1.1,5.81,5.81,0,0,0,2.3.4h7.2V45.8h-2.4a1.37,1.37,0,0,1-1.4-1.34h0V12.8a3.64,3.64,0,0,0-3-4.2h0a2.44,2.44,0,0,0-1.2,0h-7.5v6.7h2.5a1.25,1.25,0,0,1,1.4,1v7.6h-.1a3,3,0,0,1-.3-.4,7.65,7.65,0,0,0-.9-.9,10.51,10.51,0,0,0-1.7-1.1,11.44,11.44,0,0,0-2.6-.9,14.56,14.56,0,0,0-3.6-.4,13.82,13.82,0,0,0-5.7,1.2,13.45,13.45,0,0,0-4.5,3.3,16.89,16.89,0,0,0-3,5.2,18.58,18.58,0,0,0-1,6.7"/></g><g id="g632"><path id="path634" class="cls-1" d="M185.2,34.6,190,21.4c.2-.6.4-1.2.6-1.9a19.48,19.48,0,0,0,.5-2l.4-1.6a2.51,2.51,0,0,0,.1-.6h.1a3,3,0,0,1,.2.6c.1.4.2.9.4,1.6a15,15,0,0,1,.5,2,10.49,10.49,0,0,0,.6,1.9l4.7,13.2ZM172,52.3h3.4a10.55,10.55,0,0,0,2.5-.3,2.81,2.81,0,0,0,1.5-1.1,9.06,9.06,0,0,0,1.1-2.2l3.3-8.9h16l3.3,8.9a6.5,6.5,0,0,0,1.1,2.2,3.17,3.17,0,0,0,1.5,1.1,10.55,10.55,0,0,0,2.5.3h3.5V47h-.9a3.09,3.09,0,0,1-1.3-.3,2.32,2.32,0,0,1-.8-1.1L195,8.8h-6.5L174.9,45.6a2.66,2.66,0,0,1-.7,1.1,3.09,3.09,0,0,1-1.3.3H172Z"/></g><g id="g636"><path id="path638" class="cls-1" d="M212.6,36.7a18.3,18.3,0,0,0,1.2,6.5,15.16,15.16,0,0,0,8.6,8.6,16.89,16.89,0,0,0,6.7,1.2,17.11,17.11,0,0,0,8-1.9,22.39,22.39,0,0,0,2.6-1.6l1.6-1.3a2.62,2.62,0,0,0,.5-.6l-2.6-4.2a1.27,1.27,0,0,1-.4.4c-.3.2-.7.6-1.3,1.1a13.69,13.69,0,0,1-2,1.3,15.45,15.45,0,0,1-2.7,1.1,12.31,12.31,0,0,1-3.2.4,12.51,12.51,0,0,1-4.2-.7,11.26,11.26,0,0,1-3.5-2.1,10.42,10.42,0,0,1-2.4-3.5,12.59,12.59,0,0,1-.9-4.7,13.54,13.54,0,0,1,.8-4.5,10.29,10.29,0,0,1,5.6-5.8,11.82,11.82,0,0,1,4.2-.8,12.13,12.13,0,0,1,1.9.2,7,7,0,0,1,1.9.6,6.54,6.54,0,0,1,1.5,1,2,2,0,0,1,.6,1.4v1.7h5.4V27.3a5.64,5.64,0,0,0-.8-2.8,5.57,5.57,0,0,0-2.1-1.9,14.25,14.25,0,0,0-2.8-1.3c-1-.3-2-.5-3-.7a22.58,22.58,0,0,0-2.6-.2,18.54,18.54,0,0,0-6.9,1.3,17.22,17.22,0,0,0-5.3,3.4,15.13,15.13,0,0,0-3.4,5.2,22.39,22.39,0,0,0-1,6.4"/></g><g id="g640"><path id="path642" class="cls-1" d="M249.8,43.2a4.68,4.68,0,0,1,.9-2.8,5.71,5.71,0,0,1,2.3-1.8,11.15,11.15,0,0,1,3.1-.9c1.1-.2,2.2-.3,3.4-.4s2.1-.1,3-.1h1.6v1.1a10.43,10.43,0,0,1-.6,3.5,14.45,14.45,0,0,1-1.7,3.2,9.53,9.53,0,0,1-2.6,2.3,6.66,6.66,0,0,1-3.4.9,7.83,7.83,0,0,1-3.3-.7,4.73,4.73,0,0,1-2.7-4.3m-6,.3a9.83,9.83,0,0,0,.9,4.1,8.86,8.86,0,0,0,2.4,3,11.22,11.22,0,0,0,3.4,1.8,13,13,0,0,0,7.8,0,12.59,12.59,0,0,0,2.8-1.5,11.17,11.17,0,0,0,1.9-1.8,13.48,13.48,0,0,0,1-1.5l.3-.6h.1a1.71,1.71,0,0,1-.1.5c-.1.3,0,.8-.1,1.3a3.47,3.47,0,0,0,.9,2.6,4,4,0,0,0,3,1h5.6V47.3h-2.5a1.68,1.68,0,0,1-1-.3,1.84,1.84,0,0,1-.4-1V32.6a19.43,19.43,0,0,0-.6-4.8,10.27,10.27,0,0,0-2-3.9,9.29,9.29,0,0,0-3.9-2.6,16.64,16.64,0,0,0-6.3-.9,17.63,17.63,0,0,0-2.3.1,28.81,28.81,0,0,0-2.9.5,13.16,13.16,0,0,0-2.8,1,6.78,6.78,0,0,0-2.1,1.7,3.86,3.86,0,0,0-.8,2.6v3.1h5.6V27.6a1.44,1.44,0,0,1,.6-1.2,3.69,3.69,0,0,1,1.4-.7,8.24,8.24,0,0,1,1.7-.4,7.27,7.27,0,0,1,1.4-.1,9.13,9.13,0,0,1,4,.7,4.29,4.29,0,0,1,2.2,2.4,11,11,0,0,1,.7,4.4V33h-1.4c-.9,0-2,0-3.2.1s-2.6.2-4,.4a32,32,0,0,0-4.2,1,12.85,12.85,0,0,0-3.7,1.9,9.69,9.69,0,0,0-2.7,3,17.78,17.78,0,0,0-.7,4.1"/></g><g id="g644"><path id="path646" class="cls-1" d="M290.4,47.9a8.54,8.54,0,0,1-4.6-1.4,9.18,9.18,0,0,1-3.1-3.9,13.45,13.45,0,0,1-1.1-5.9,15,15,0,0,1,.7-4.7,10.74,10.74,0,0,1,1.9-3.5,9.07,9.07,0,0,1,2.9-2.2,8.42,8.42,0,0,1,3.5-.7,7.49,7.49,0,0,1,3.9,1,9.57,9.57,0,0,1,2.8,2.5,14.64,14.64,0,0,1,1.7,3.6,13.85,13.85,0,0,1,.5,4.1,15,15,0,0,1-.8,5.1,9.48,9.48,0,0,1-2,3.5,7.21,7.21,0,0,1-2.9,2,12.66,12.66,0,0,1-3.4.5M275.5,36.8a21.09,21.09,0,0,0,1,6.6,15.74,15.74,0,0,0,2.7,5.1,12.82,12.82,0,0,0,4.3,3.4,13.82,13.82,0,0,0,5.7,1.2,13.56,13.56,0,0,0,4-.6,10.79,10.79,0,0,0,2.9-1.4,7.7,7.7,0,0,0,1.9-1.7,16.52,16.52,0,0,0,1.1-1.4l.3-.6h.1v1.5a3,3,0,0,0,.9,2.4,3.86,3.86,0,0,0,2.9.9H309V47.1h-2.5a1.68,1.68,0,0,1-1-.3,1.29,1.29,0,0,1-.4-1v-33a3.39,3.39,0,0,0-2.7-3.9,2.85,2.85,0,0,0-1.3,0h-5.9V14h2.5a1.68,1.68,0,0,1,1,.3,1.19,1.19,0,0,1,.3,1v7.8a6.84,6.84,0,0,0,.1,1.5,2.51,2.51,0,0,1,.1.6h-.1c-.1-.2-.2-.3-.3-.5a10.43,10.43,0,0,0-1-1.2,9.06,9.06,0,0,0-1.8-1.4,13.31,13.31,0,0,0-2.7-1.2,11.9,11.9,0,0,0-3.8-.5A13.58,13.58,0,0,0,276.4,30a45.71,45.71,0,0,0-.9,6.8"/></g><g id="g648"><path id="path650" class="cls-1" d="M317.4,33.1a11.33,11.33,0,0,1,1.8-4.4,8.28,8.28,0,0,1,3.2-2.7,10,10,0,0,1,4.2-.9,7.4,7.4,0,0,1,3.6.9,6.17,6.17,0,0,1,2.6,2.7,9.12,9.12,0,0,1,1.1,4.4ZM311,36.7a17.31,17.31,0,0,0,1.2,6.4,16.2,16.2,0,0,0,3.4,5.2,14.66,14.66,0,0,0,5.2,3.4,17.53,17.53,0,0,0,10.8.8,18.26,18.26,0,0,0,3.3-1.1,12.79,12.79,0,0,0,2.5-1.4,8.51,8.51,0,0,0,1.5-1.1l.5-.5-2.6-4.2-.4.4-1.2.9a19.94,19.94,0,0,1-1.9,1.1,13.41,13.41,0,0,1-5.5,1.3,10.91,10.91,0,0,1-4-.7,10.07,10.07,0,0,1-5.7-5.3,13.35,13.35,0,0,1-1-4.4h22.7V37a3.74,3.74,0,0,1,.1-1,3.35,3.35,0,0,0,0-1,19,19,0,0,0-.9-5.7,12.07,12.07,0,0,0-6.7-7.7,14.28,14.28,0,0,0-5.8-1.2,16.68,16.68,0,0,0-6.2,1.2,14.08,14.08,0,0,0-5,3.3A15.34,15.34,0,0,0,312,30a18.9,18.9,0,0,0-1.2,6.7"/></g><g id="g652"><path id="path654" class="cls-1" d="M346.2,52.3h6V38.1a14.77,14.77,0,0,1,.1-2.1c.1-.7.2-1.3.3-1.9a18.42,18.42,0,0,1,1.2-3.2,10.11,10.11,0,0,1,1.9-2.6,6.63,6.63,0,0,1,2.6-1.8,8.8,8.8,0,0,1,3.2-.7,6.44,6.44,0,0,1,2.8.6,3.76,3.76,0,0,1,1.6,1.7,7.23,7.23,0,0,1,.7,2.5c.1,1,.2,2,.2,2.9V52.2h6V38.1a19.21,19.21,0,0,1,.5-4.2,13.63,13.63,0,0,1,1.2-3,15.61,15.61,0,0,1,1.9-2.6,11.34,11.34,0,0,1,2.5-1.8,7.75,7.75,0,0,1,3-.7,6.74,6.74,0,0,1,2.8.6,4.62,4.62,0,0,1,1.7,1.7,7.11,7.11,0,0,1,.8,2.5,15.3,15.3,0,0,1,.2,3.1V48.4A3.29,3.29,0,0,0,390,52.29h0a3.36,3.36,0,0,0,1.34,0h5.9V47.2h-2.5a1.68,1.68,0,0,1-1-.3,1.29,1.29,0,0,1-.4-1V32.3c0-4-.8-7-2.5-9s-4.3-3-7.8-3a11,11,0,0,0-3.6.6,13,13,0,0,0-5.7,3.8,9.4,9.4,0,0,0-1.7,2.7h-.1a8.51,8.51,0,0,0-3.1-5.3,9.92,9.92,0,0,0-6.3-1.8,10.43,10.43,0,0,0-3.5.6,13,13,0,0,0-3.1,1.6,18.79,18.79,0,0,0-2.5,2.3,10.23,10.23,0,0,0-1.6,2.6h-.1V24.5a3.22,3.22,0,0,0-1-2.6,4.12,4.12,0,0,0-3-.9H342v5.1h2.5a1.25,1.25,0,0,1,1.4,1v.3Z"/></g><g id="g656"><path id="path658" class="cls-1" d="M399,57.8l-2.5,4.3.5.5a7.46,7.46,0,0,0,1.4,1.1,9.6,9.6,0,0,0,2.3,1,10.53,10.53,0,0,0,3.1.5,11.77,11.77,0,0,0,4.1-.8,9.34,9.34,0,0,0,3.4-2.5,12.9,12.9,0,0,0,2.5-4l12.3-30.4a1.55,1.55,0,0,1,.8-1,1.73,1.73,0,0,1,1.2-.2h.8V21.2h-3.6a7.46,7.46,0,0,0-2.1.3,2.45,2.45,0,0,0-1.4,1,6.92,6.92,0,0,0-1,1.9L414.3,42a11.06,11.06,0,0,0-.5,1.7,15,15,0,0,1-.4,1.5,2.51,2.51,0,0,0-.1.6h-.1a1.42,1.42,0,0,0-.2-.6,15,15,0,0,1-.4-1.5c-.2-.6-.4-1.1-.6-1.7l-7.1-17.6a6.92,6.92,0,0,0-1-1.9,2.53,2.53,0,0,0-1.3-1,6.47,6.47,0,0,0-2-.3h-3.5v5.1h.7a4.86,4.86,0,0,1,1.2.2,2,2,0,0,1,.8,1l10.7,24.7-1.4,3.4a8.47,8.47,0,0,1-2.3,3.3,4.72,4.72,0,0,1-3.2,1.2,5.53,5.53,0,0,1-1.8-.3,4,4,0,0,1-1.4-.8,7,7,0,0,1-1-.8,1.31,1.31,0,0,1-.3-.4"/></g></g><path class="cls-1" d="M237,106a22.47,22.47,0,0,1-8.6-3.6,26.35,26.35,0,0,0-2.9-1.6m.1,0a14.3,14.3,0,0,0,6-15.8,14,14,0,0,0-10.2-10,14.25,14.25,0,0,0-6.7,27.7l1.8.3m-.1.1-1.9,3.3a.46.46,0,0,0,.1.6c.1,0,.1.1.2.1,1.8,0,4.7-.1,9.3,2.8,5,3.2,8,3.5,8.7,3.6a.45.45,0,0,0,.58-.25h0c.5-.8,3.7-6.5,3.7-6.5.1-.2.1-.4-.1-.5h-.1m-19-11.7a5.78,5.78,0,0,1-5.3-7.9,5,5,0,0,1,3-3A5.65,5.65,0,0,1,220,94a4.05,4.05,0,0,1-2.1.5"/><path class="cls-1" d="M245.8,76.1a.81.81,0,0,0-.6-.4.56.56,0,0,0-.6.4l-13.9,24c-.1.2,0,.4.1.4a24.46,24.46,0,0,0,7.8,3.4.41.41,0,0,0,.4-.2l5.8-10a.57.57,0,0,1,1,0l5.8,10a.52.52,0,0,0,.4.2,24.46,24.46,0,0,0,7.8-3.4.25.25,0,0,0,.15-.32.22.22,0,0,0-.05-.08h0Z"/><path class="cls-1" d="M272.79,94.18a9.74,9.74,0,0,1-3.85-3.63,10.57,10.57,0,0,1,0-10.55,9.74,9.74,0,0,1,3.85-3.63,11.6,11.6,0,0,1,5.54-1.31,12,12,0,0,1,4.86,1,9.48,9.48,0,0,1,3.59,2.74L283.24,82a5.91,5.91,0,0,0-7.47-1.6,4.85,4.85,0,0,0-1.94,2,6.57,6.57,0,0,0,0,5.86,4.85,4.85,0,0,0,1.94,2,5.64,5.64,0,0,0,2.84.7,5.81,5.81,0,0,0,4.63-2.3l3.54,3.2a9.5,9.5,0,0,1-3.59,2.75,12,12,0,0,1-4.86,1A11.66,11.66,0,0,1,272.79,94.18Z"/><path class="cls-1" d="M293.13,94.16a9.83,9.83,0,0,1-3.9-3.64,10.41,10.41,0,0,1,0-10.49,9.85,9.85,0,0,1,3.9-3.65,12.52,12.52,0,0,1,11.19,0,9.85,9.85,0,0,1,3.9,3.65,10.41,10.41,0,0,1,0,10.49,9.83,9.83,0,0,1-3.9,3.64A12.52,12.52,0,0,1,293.13,94.16Zm8.29-4a5.1,5.1,0,0,0,1.91-2,6.5,6.5,0,0,0,0-5.86,5.1,5.1,0,0,0-1.91-2,5.56,5.56,0,0,0-5.39,0,5.1,5.1,0,0,0-1.91,2,6.5,6.5,0,0,0,0,5.86,5.1,5.1,0,0,0,1.91,2A5.56,5.56,0,0,0,301.42,90.16Z"/><path class="cls-1" d="M330.28,95.09l-.06-10.41-5,8.47h-2.47l-5-8.19V95.09h-5.14V75.46h4.58l6.9,11.33,6.73-11.33h4.57l.06,19.63Z"/><path class="cls-1" d="M352.91,76.34a6.92,6.92,0,0,1,0,12.73,11.14,11.14,0,0,1-4.63.89h-3.42v5.13H339.3V75.46h9A11.07,11.07,0,0,1,352.91,76.34Zm-2.39,8.5a3,3,0,0,0,0-4.24h0a3.8,3.8,0,0,0-2.58-.76h-3.08v5.75h3.08A3.9,3.9,0,0,0,350.52,84.84Z"/><path class="cls-1" d="M371.87,91.28h-8.3L362,95.09h-5.66L365,75.46h5.46l8.7,19.63h-5.78Zm-1.63-4.1-2.52-6.28-2.53,6.28Z"/><path class="cls-1" d="M399.44,75.46V95.09h-4.57L386.2,84.63V95.09h-5.44V75.46h4.57L394,85.92V75.46Z"/><path class="cls-1" d="M413.89,88.05v7h-5.56V88l-7.49-12.5h5.87l4.65,7.79L416,75.5h5.38Z"/><path class="cls-1" d="M184.7,91.28h-8.3l-1.55,3.81h-5.66l8.66-19.63h5.47L192,95.09h-5.78Zm-1.63-4.1-2.52-6.28L178,87.18Z"/></g></svg>